<svg id="Layer_1" data-name="Layer 1" xmlns="http://www.w3.org/2000/svg" viewBox="0 0 150 50">
  <defs>
    <style>
      .cls-1 {
        fill: #fff;
      }
    </style>
  </defs>
  <title>Logo Kleep - White</title>
  <path class="cls-1" d="M56.78,40.68l-11.19-12v12H40.87V2.83h4.72V24.72l9-9.12h6.51l-11,11.17,13,13.91Z"/>
  <path class="cls-1" d="M64.13,40.68V2.83h4.73V40.68Z"/>
  <path class="cls-1" d="M94.31,28.12a17.68,17.68,0,0,1,0,1.88H74.53a7.3,7.3,0,0,0,2.58,4.81,8,8,0,0,0,5.28,1.8,8.68,8.68,0,0,0,4.12-1,6.86,6.86,0,0,0,2.86-2.76l1,.39c.47.19.84.34,1.12.44l2,.73a10.84,10.84,0,0,1-4.5,4.76,13.36,13.36,0,0,1-6.69,1.7,12.28,12.28,0,0,1-8.9-3.54,12.47,12.47,0,0,1-3.54-9.22A12,12,0,0,1,82.24,15.53,11.39,11.39,0,0,1,90.88,19,12.29,12.29,0,0,1,94.31,28.12ZM74.53,26.3h15.1a7.43,7.43,0,0,0-2.42-4.76,7.31,7.31,0,0,0-5-1.74,7.85,7.85,0,0,0-5.18,1.74A7.19,7.19,0,0,0,74.53,26.3Z"/>
  <path class="cls-1" d="M119.76,28.12c0,1,0,1.64-.05,1.88H100a7.3,7.3,0,0,0,2.58,4.81,8,8,0,0,0,5.28,1.8,8.68,8.68,0,0,0,4.12-1,6.92,6.92,0,0,0,2.86-2.76l1,.39c.47.19.84.34,1.12.44l2,.73a10.84,10.84,0,0,1-4.5,4.76,13.36,13.36,0,0,1-6.69,1.7,12.28,12.28,0,0,1-8.9-3.54,12.47,12.47,0,0,1-3.54-9.22,12,12,0,0,1,12.44-12.59A11.39,11.39,0,0,1,116.33,19,12.29,12.29,0,0,1,119.76,28.12ZM100,26.3h15.1a7.43,7.43,0,0,0-2.42-4.76,7.31,7.31,0,0,0-5-1.74,7.85,7.85,0,0,0-5.18,1.74A7.19,7.19,0,0,0,100,26.3Z"/>
  <path class="cls-1" d="M120.7,15.6h4.68v4.27a8.33,8.33,0,0,1,3.48-3.11,10.67,10.67,0,0,1,4.92-1.16,11.59,11.59,0,0,1,8.54,3.5,12.29,12.29,0,0,1,3.5,9.11,12.19,12.19,0,0,1-3.5,9,12.28,12.28,0,0,1-13.56,2.36,7.24,7.24,0,0,1-3.38-3V47H120.7Zm4.73,12.66A7.22,7.22,0,0,0,127.8,34a8.12,8.12,0,0,0,5.51,2.06,7.46,7.46,0,0,0,7.78-7.83,7.87,7.87,0,0,0-2.27-5.81,7.51,7.51,0,0,0-5.51-2.27,7.67,7.67,0,0,0-7.88,8.08Z"/>
  <g>
    <rect class="cls-1" x="4" y="5.94" width="3.16" height="31.58"/>
    <path class="cls-1" d="M7.16,2.78V5.94H25.27v6.31h6.32V37.52H7.16v3.16H34.74V2.78ZM31.59,9.1H28.43V5.94h3.16Z"/>
    <rect class="cls-1" x="10.31" y="15.41" width="14.95" height="3.16"/>
    <rect class="cls-1" x="10.31" y="21.73" width="14.95" height="3.16"/>
    <rect class="cls-1" x="10.31" y="28.05" width="14.95" height="3.16"/>
  </g>
</svg>
